#!OML:ASF F:\VICON\USERDATA\INSTALL\rory3\rory3.ASF
:FULLY-SPECIFIED
:DEGREES
868
root 5.25545 16.9661 1.82935 7.3688 -15.1047 -6.72442
lowerback 20.9607 -0.671743 4.20474
upperback 5.07776 0.035832 1.07631
thorax -6.17631 -0.0546096 -1.2433
lowerneck -14.604 -0.478433 -2.20724
upperneck 37.695 0.323799 -1.46315
head 15.7966 -0.464413 -0.202224
rclavicle 1.31198e-014 -1.19271e-014
rhumerus -35.0299 -8.41272 -17.0194
rradius 35.4639
rwrist 4.13744
rhand -19.9559 -45.7543
rfingers 7.12502
rthumb 6.38237 -75.6381
lclavicle 1.31198e-014 -1.19271e-014
lhumerus -35.5747 8.24584 12.7428
lradius 28.1853
lwrist 16.4008
lhand -24.4151 -31.9929
lfingers 7.12502
lthumb 2.07642 -2.02322
rfemur -100.03 0.223181 27.448
rtibia 95.593
rfoot 48.4921 1.06932
rtoes -1.94821
lfemur -28.5926 4.99102 -24.2128
ltibia 40.754
lfoot -17.0617 10.9398
ltoes 15.5634
869
root 5.25553 16.9646 1.82692 7.38678 -15.1007 -6.69371
lowerback 20.9383 -0.664878 4.213
upperback 5.08102 0.0444861 1.06649
thorax -6.16052 -0.0501777 -1.26088
lowerneck -14.6426 -0.454429 -2.01369
upperneck 37.6271 0.406446 -1.73935
head 15.7729 -0.439274 -0.340447
rclavicle 3.06128e-014 -1.11319e-014
rhumerus -35.0451 -8.6263 -16.9422
rradius 35.3858
rwrist 4.72115
rhand -19.755 -45.2862
rfingers 7.12502
rthumb 6.57635 -75.1641
lclavicle 3.06128e-014 -1.11319e-014
lhumerus -35.494 8.3482 12.7219
lradius 27.9712
lwrist 16.2114
lhand -24.3653 -31.8988
lfingers 7.12502
lthumb 2.12456 -1.92959
rfemur -100.05 0.194675 27.4673
rtibia 95.5789
rfoot 48.5012 1.26194
rtoes -2.98711
lfemur -28.6046 4.96848 -24.2497
ltibia 40.7282
lfoot -17.0407 10.9961
ltoes 15.5646
870
root 5.25572 16.965 1.82759 7.28303 -15.1153 -6.62274
lowerback 20.9614 -0.677156 4.17771
upperback 5.11609 0.0188288 1.03985
thorax -6.13594 -0.0615156 -1.263
lowerneck -14.5908 -0.397801 -1.91381
upperneck 37.5885 0.520769 -1.90467
head 15.7423 -0.399745 -0.408865
rclavicle -1.66979e-014 -5.1684e-015
rhumerus -35.0431 -8.6961 -16.952
rradius 35.3883
rwrist 4.59416
rhand -19.9133 -45.526
rfingers 7.12502
rthumb 6.42353 -75.4086
lclavicle -1.66979e-014 -5.1684e-015
lhumerus -35.5394 8.35063 12.6907
lradius 27.8576
lwrist 16.1598
lhand -24.3017 -31.5201
lfingers 7.12502
lthumb 2.18599 -1.55155
rfemur -99.9331 0.144728 27.4444
rtibia 95.571
rfoot 48.5307 1.02137
rtoes -2.94686
lfemur -28.4749 4.97973 -24.3287
ltibia 40.6928
lfoot -16.9989 11.0076
ltoes 15.3738
871
root 5.25616 16.9663 1.82787 7.22591 -15.1554 -6.63147
lowerback 20.9717 -0.667181 4.22078
upperback 5.12621 0.0404611 1.03544
thorax -6.12896 -0.0514146 -1.2978
lowerneck -14.3736 -0.400209 -1.9307
upperneck 37.4436 0.524686 -1.93489
head 15.6173 -0.401619 -0.41511
rclavicle -6.16232e-015 1.86858e-014
rhumerus -35.0709 -8.82969 -16.8898
rradius 35.3816
rwrist 4.45726
rhand -19.8538 -45.671
rfingers 7.12502
rthumb 6.48096 -75.5518
lclavicle -6.16232e-015 1.86858e-014
lhumerus -35.5284 8.33234 12.6854
lradius 27.7843
lwrist 16.1474
lhand -24.3131 -30.8623
lfingers 7.12502
lthumb 2.175 -0.893596
rfemur -99.8194 0.145495 27.5151
rtibia 95.5528
rfoot 48.4986 0.972384
rtoes -2.79862
lfemur -28.3779 5.00762 -24.3222
ltibia 40.6466
lfoot -16.9772 11.0304
ltoes 15.0475
872
root 5.25543 16.9654 1.82764 7.25285 -15.2431 -6.56807
lowerback 20.9161 -0.615097 4.16029
upperback 5.11297 0.0917256 1.01945
thorax -6.11193 -0.0257496 -1.29384
lowerneck -14.382 -0.43467 -1.93113
upperneck 37.4175 0.474102 -1.93577
head 15.6062 -0.422204 -0.423618
rclavicle 3.73715e-014 -5.1684e-015
rhumerus -35.0555 -8.96122 -16.8171
rradius 35.2515
rwrist 4.55808
rhand -19.6796 -45.575
rfingers 7.12502
rthumb 6.64908 -75.4506
lclavicle 3.73715e-014 -5.1684e-015
lhumerus -35.5235 8.16731 12.7443
lradius 27.8479
lwrist 16.2922
lhand -24.4396 -29.776
lfingers 7.12502
lthumb 2.05276 0.193845
rfemur -99.8523 0.215388 27.4923
rtibia 95.5598
rfoot 48.4473 1.32452
rtoes -3.39902
lfemur -28.4079 5.05794 -24.4013
ltibia 40.608
lfoot -16.9759 11.0744
ltoes 14.9787
873
root 5.25419 16.968 1.82736 7.22551 -15.3202 -6.49522
lowerback 20.8996 -0.593984 4.06911
upperback 5.13553 0.0967933 1.00268
thorax -6.07908 -0.0215876 -1.26142
lowerneck -14.6087 -0.437627 -1.9376
upperneck 37.5819 0.477833 -1.92599
head 15.7435 -0.423609 -0.421091
rclavicle -1.19271e-015 2.3059e-014
rhumerus -34.9944 -8.9761 -16.8444
rradius 35.2134
rwrist 4.55301
rhand -19.7456 -45.6611
rfingers 7.12502
rthumb 6.58537 -75.5387
lclavicle -1.19271e-015 2.3059e-014
lhumerus -35.4845 8.33325 12.6468
lradius 28.0329
lwrist 16.565
lhand -24.7292 -27.335
lfingers 7.12502
lthumb 1.77308 2.63734
rfemur -99.8086 0.265269 27.4362
rtibia 95.5455
rfoot 48.4323 1.34925
rtoes -3.42827
lfemur -28.3993 5.11819 -24.4779
ltibia 40.5895
lfoot -16.9499 11.1064
ltoes 15.0567
874
root 5.25213 16.971 1.82255 7.19726 -15.3482 -6.61691
lowerback 21.0275 -0.596382 4.1225
upperback 5.13817 0.114336 1.04854
thorax -6.14192 -0.0150195 -1.24672
lowerneck -14.7338 -0.426489 -1.89321
upperneck 37.6433 0.502469 -1.9707
head 15.8052 -0.414702 -0.445496
rclavicle -5.08889e-014 3.18055e-014
rhumerus -34.9984 -8.87425 -16.8753
rradius 35.2882
rwrist 4.42091
rhand -19.7707 -45.7202
rfingers 7.12502
rthumb 6.56119 -75.5985
lclavicle -5.08889e-014 3.18055e-014
lhumerus -35.3192 8.76925 12.4432
lradius 28.291
lwrist 16.9174
lhand -24.8698 -24.2025
lfingers 7.12502
lthumb 1.63729 5.77092
rfemur -99.6684 0.320625 27.5947
rtibia 95.4872
rfoot 48.38 1.08262
rtoes -3.40507
lfemur -28.3563 5.18738 -24.33
ltibia 40.5799
lfoot -16.9075 11.138
ltoes 15.0531
875
root 5.25063 16.9723 1.81813 7.2024 -15.3698 -6.81351
lowerback 21.1151 -0.583553 4.27166
upperback 5.13405 0.172556 1.12503
thorax -6.18839 0.0103761 -1.26397
lowerneck -14.6677 -0.450181 -1.97701
upperneck 37.5433 0.468427 -1.91161
head 15.7383 -0.430514 -0.409158
rclavicle -4.17448e-015 -1.19271e-014
rhumerus -35.0694 -8.77226 -16.8355
rradius 35.3245
rwrist 4.33996
rhand -19.4918 -45.974
rfingers 7.12502
rthumb 6.83043 -75.8439
lclavicle -4.17448e-015 -1.19271e-014
lhumerus -35.2973 8.75019 12.5211
lradius 28.3737
lwrist 16.9574
lhand -24.4002 -22.1888
lfingers 7.12502
lthumb 2.09083 7.78075
rfemur -99.5411 0.391097 27.8425
rtibia 95.4457
rfoot 48.3595 1.05294
rtoes -3.80557
lfemur -28.3156 5.24602 -24.102
ltibia 40.5601
lfoot -16.9295 11.1046
ltoes 15.4658
876
root 5.2511 16.9772 1.82033 7.15666 -15.3983 -6.84804
lowerback 21.0406 -0.571351 4.37746
upperback 5.18273 0.204794 1.13147
thorax -6.09397 0.0269718 -1.32557
lowerneck -14.5806 -0.488791 -2.1444
upperneck 37.5033 0.418723 -1.80003
head 15.697 -0.458215 -0.338942
rclavicle -3.55825e-014 3.89618e-014
rhumerus -35.1337 -8.80397 -16.7874
rradius 35.3094
rwrist 4.35751
rhand -19.2056 -46.1805
rfingers 7.12502
rthumb 7.10665 -76.0412
lclavicle -3.55825e-014 3.89618e-014
lhumerus -35.4044 8.35881 12.8093
lradius 27.8546
lwrist 16.322
lhand -24.527 -24.9759
lfingers 7.12502
lthumb 1.96842 4.99473
rfemur -99.4265 0.375417 27.9269
rtibia 95.4487
rfoot 48.346 1.28142
rtoes -3.96875
lfemur -28.2211 5.26041 -24.0568
ltibia 40.5336
lfoot -17.0031 11.0272
ltoes 15.8756
877
root 5.25198 16.9816 1.82287 7.1502 -15.3985 -6.77818
lowerback 20.8924 -0.588451 4.39637
upperback 5.2164 0.174042 1.09016
thorax -5.98131 0.0145293 -1.37302
lowerneck -14.5792 -0.506657 -2.25355
upperneck 37.5491 0.375606 -1.66671
head 15.7191 -0.474132 -0.270368
rclavicle 9.14409e-015 2.10712e-014
rhumerus -35.095 -8.85892 -16.7968
rradius 35.2297
rwrist 4.36849
rhand -19.3044 -46.0847
rfingers 7.12502
rthumb 7.01136 -75.9486
lclavicle 9.14409e-015 2.10712e-014
lhumerus -35.3461 8.69157 12.5645
lradius 28.3713
lwrist 16.9912
lhand -23.9544 -23.0442
lfingers 7.12502
lthumb 2.52138 6.92063
rfemur -99.4204 0.290777 27.916
rtibia 95.4419
rfoot 48.3584 1.55819
rtoes -3.83685
lfemur -28.1936 5.24317 -24.1415
ltibia 40.5028
lfoot -16.9538 11.0417
ltoes 15.6102
878
root 5.25066 16.9817 1.81871 7.23378 -15.3883 -6.85547
lowerback 20.8634 -0.62498 4.43827
upperback 5.17462 0.138204 1.12534
thorax -6.01332 -0.00420367 -1.34973
lowerneck -14.5069 -0.494924 -2.41366
upperneck 37.5148 0.365999 -1.47549
head 15.6835 -0.474373 -0.160995
rclavicle 3.18055e-014 -2.18663e-014
rhumerus -34.9658 -8.79836 -16.8206
rradius 35.1659
rwrist 4.36715
rhand -19.3943 -46.0397
rfingers 7.12502
rthumb 6.92453 -75.9064
lclavicle 3.18055e-014 -2.18663e-014
lhumerus -35.4307 8.6901 12.4718
lradius 28.5772
lwrist 17.2917
lhand -24.1065 -23.3383
lfingers 7.12502
lthumb 2.3745 6.62824
rfemur -99.4571 0.299365 28.0466
rtibia 95.3809
rfoot 48.4641 1.75137
rtoes -3.40889
lfemur -28.2718 5.25162 -24.0574
ltibia 40.4801
lfoot -16.8527 11.116
ltoes 15.2293
879
root 5.24886 16.9809 1.81472 7.27494 -15.4031 -6.91567
lowerback 20.8727 -0.63656 4.47082
upperback 5.15956 0.132672 1.14772
thorax -6.03468 -0.00782615 -1.34266
lowerneck -14.4877 -0.491437 -2.50659
upperneck 37.5169 0.36744 -1.39201
head 15.6797 -0.475709 -0.108462
rclavicle -1.55052e-014 -1.03368e-014
rhumerus -34.8956 -8.7798 -16.837
rradius 35.1479
rwrist 4.36296
rhand -19.3617 -46.0233
rfingers 7.12502
rthumb 6.95603 -75.8891
lclavicle -1.55052e-014 -1.03368e-014
lhumerus -35.5523 8.59642 12.504
lradius 28.436
lwrist 17.047
lhand -23.5173 -22.7623
lfingers 7.12502
lthumb 2.94351 7.19713
rfemur -99.4667 0.337098 28.1463
rtibia 95.3318
rfoot 48.557 2.03728
rtoes -3.35407
lfemur -28.3244 5.27891 -23.9805
ltibia 40.4855
lfoot -16.897 11.1201
ltoes 15.2404
880
root 5.24813 16.9791 1.81388 7.24665 -15.4237 -6.84337
lowerback 20.8098 -0.627008 4.43234
upperback 5.20443 0.128777 1.11017
thorax -5.95344 -0.00729621 -1.36041
lowerneck -14.5512 -0.506326 -2.42995
upperneck 37.5722 0.36222 -1.4917
head 15.7235 -0.481758 -0.166553
rclavicle 6.75868e-015 -1.63003e-014
rhumerus -34.8717 -8.84315 -16.852
rradius 35.1336
rwrist 4.37066
rhand -19.4248 -45.8257
rfingers 7.12502
rthumb 6.89511 -75.6934
lclavicle 6.75868e-015 -1.63003e-014
lhumerus -35.7736 8.40929 12.6343
lradius 28.3043
lwrist 16.4824
lhand -22.8061 -22.9562
lfingers 7.12502
lthumb 3.63039 6.99267
rfemur -99.475 0.321968 28.1026
rtibia 95.3273
rfoot 48.6809 2.09176
rtoes -3.50639
lfemur -28.3329 5.30234 -24.0567
ltibia 40.5124
lfoot -16.9906 11.0284
ltoes 15.5129
